<?xml version="1.0" encoding="UTF-8"?>
<svg xmlns="http://www.w3.org/2000/svg" xmlns:xlink="http://www.w3.org/1999/xlink" width="1872.510742pt" height="454.658936pt" viewBox="0 0 1872.510742 454.658936">
<defs>
<clipPath id="clip-0">
<path clip-rule="nonzero" d="M 1737 256 L 1872.511719 256 L 1872.511719 449 L 1737 449 Z M 1737 256 "/>
</clipPath>
<clipPath id="clip-1">
<path clip-rule="nonzero" d="M 0 0 L 476 0 L 476 454.660156 L 0 454.660156 Z M 0 0 "/>
</clipPath>
</defs>
<path fill-rule="nonzero" fill="rgb(4.705811%, 4.705811%, 4.705811%)" fill-opacity="1" d="M 1163.304688 278.339844 L 1207.261719 278.339844 C 1217.511719 278.339844 1227.1875 280.085938 1236.230469 283.574219 C 1245.285156 287.074219 1253.171875 291.980469 1259.894531 298.324219 C 1266.628906 304.65625 1271.9375 312.28125 1275.863281 321.207031 C 1279.789062 330.125 1281.753906 340.066406 1281.753906 351.019531 C 1281.753906 361.277344 1279.882812 370.980469 1276.125 380.113281 C 1272.378906 389.253906 1267.160156 397.242188 1260.472656 404.097656 C 1253.789062 410.957031 1245.847656 416.367188 1236.667969 420.335938 C 1227.492188 424.292969 1217.425781 426.28125 1206.484375 426.28125 L 1163.304688 426.28125 Z M 1145.6875 448.265625 L 1207.261719 448.265625 C 1216.15625 448.265625 1224.730469 447.125 1233.011719 444.835938 C 1241.269531 442.550781 1248.976562 439.335938 1256.140625 435.203125 C 1263.308594 431.0625 1269.8125 426.082031 1275.671875 420.265625 C 1281.539062 414.445312 1286.582031 408.003906 1290.808594 400.933594 C 1295.015625 393.863281 1298.269531 386.234375 1300.554688 378.042969 C 1302.835938 369.855469 1303.984375 361.363281 1303.984375 352.566406 C 1303.984375 343.601562 1302.871094 335 1300.625 326.769531 C 1298.394531 318.539062 1295.195312 310.859375 1291.128906 303.75 C 1287.023438 296.636719 1282.070312 290.160156 1276.25 284.296875 C 1270.433594 278.429688 1263.941406 273.425781 1256.777344 269.289062 C 1249.636719 265.152344 1241.886719 261.96875 1233.578125 259.71875 C 1225.246094 257.472656 1216.46875 256.359375 1207.261719 256.359375 L 1145.6875 256.359375 C 1144.242188 256.359375 1143.144531 256.710938 1142.414062 257.386719 C 1141.675781 258.082031 1141.320312 259.285156 1141.320312 261.007812 L 1141.320312 444.382812 C 1141.320312 445.9375 1141.746094 446.964844 1142.613281 447.480469 C 1143.460938 448.007812 1144.503906 448.265625 1145.6875 448.265625 Z M 1145.6875 448.265625 "/>
<path fill-rule="nonzero" fill="rgb(4.705811%, 4.705811%, 4.705811%)" fill-opacity="1" d="M 1093.523438 256.367188 C 1092.234375 256.367188 1091.207031 256.75 1090.484375 257.53125 C 1089.761719 258.304688 1089.371094 259.289062 1089.371094 260.496094 L 1089.371094 444.128906 C 1089.371094 446.890625 1090.765625 448.261719 1093.523438 448.261719 L 1107.234375 448.261719 C 1108.703125 448.261719 1109.835938 447.945312 1110.664062 447.300781 C 1111.480469 446.648438 1111.902344 445.601562 1111.902344 444.128906 L 1111.902344 260.496094 C 1111.902344 259.203125 1111.40625 258.195312 1110.457031 257.46875 C 1109.515625 256.730469 1108.433594 256.367188 1107.234375 256.367188 Z M 1093.523438 256.367188 "/>
<path fill-rule="nonzero" fill="rgb(4.705811%, 4.705811%, 4.705811%)" fill-opacity="1" d="M 861.257812 259.855469 L 860.304688 411.414062 L 746.464844 258.082031 C 745.421875 256.699219 744.046875 255.996094 742.332031 255.992188 L 724.734375 255.882812 C 723.453125 255.867188 722.390625 256.269531 721.578125 257.082031 C 720.746094 257.902344 720.324219 258.957031 720.316406 260.246094 L 720.054688 300.855469 L 719.242188 398.128906 L 719.15625 411.84375 L 719.15625 413.003906 C 719.21875 415.339844 720.585938 416.511719 723.265625 416.535156 L 723.523438 416.535156 L 780.386719 416.742188 C 781.695312 416.742188 782.710938 416.28125 783.433594 415.34375 C 784.183594 414.402344 784.558594 413.328125 784.558594 412.105469 L 784.648438 398.398438 C 784.648438 397.117188 784.273438 396.097656 783.507812 395.359375 C 782.734375 394.628906 781.746094 394.253906 780.539062 394.242188 L 741.503906 394.136719 L 742.125 288.0625 L 860.359375 448.644531 L 877.414062 448.746094 C 880.683594 448.773438 882.304688 447.40625 882.339844 444.660156 L 883.511719 261.023438 C 883.511719 259.730469 883 258.714844 881.992188 257.980469 C 880.953125 257.238281 879.832031 256.859375 878.632812 256.859375 L 865.433594 256.765625 C 863.207031 256.75 861.808594 257.78125 861.257812 259.855469 Z M 861.257812 259.855469 "/>
<path fill-rule="nonzero" fill="rgb(4.705811%, 4.705811%, 4.705811%)" fill-opacity="1" d="M 814.371094 446.867188 C 815.101562 445.925781 815.46875 444.855469 815.492188 443.636719 L 815.578125 429.933594 C 815.578125 428.640625 815.203125 427.625 814.429688 426.894531 C 813.667969 426.144531 812.664062 425.777344 811.476562 425.765625 L 723.410156 425.765625 C 722.113281 425.757812 721.089844 426.21875 720.355469 427.164062 C 719.613281 428.109375 719.242188 429.179688 719.242188 430.390625 L 719.15625 444.105469 C 719.148438 445.386719 719.527344 446.414062 720.300781 447.152344 C 721.070312 447.886719 722.0625 448.261719 723.261719 448.277344 L 811.320312 448.277344 C 812.625 448.277344 813.632812 447.8125 814.371094 446.867188 Z M 814.371094 446.867188 "/>
<path fill-rule="nonzero" fill="rgb(4.705811%, 4.705811%, 4.705811%)" fill-opacity="1" d="M 1702.921875 256.363281 L 1628.90625 256.363281 C 1627.628906 256.363281 1626.566406 256.730469 1625.757812 257.46875 C 1624.925781 258.1875 1624.535156 259.214844 1624.535156 260.511719 L 1624.535156 273.695312 L 1624.566406 443.871094 C 1624.566406 445.160156 1624.992188 446.214844 1625.863281 447.046875 C 1626.726562 447.851562 1627.734375 448.269531 1628.957031 448.269531 L 1642.132812 448.269531 C 1643.621094 448.269531 1644.769531 447.828125 1645.566406 446.964844 C 1646.414062 446.113281 1646.804688 445.074219 1646.804688 443.871094 L 1646.804688 278.613281 L 1702.921875 278.613281 C 1704.652344 278.613281 1705.90625 278.152344 1706.6875 277.246094 C 1707.449219 276.332031 1707.855469 275.15625 1707.855469 273.695312 L 1707.855469 260.511719 C 1707.59375 259.035156 1707.007812 257.976562 1706.105469 257.328125 C 1705.203125 256.6875 1704.140625 256.363281 1702.921875 256.363281 Z M 1702.921875 256.363281 "/>
<path fill-rule="nonzero" fill="rgb(4.705811%, 4.705811%, 4.705811%)" fill-opacity="1" d="M 1561.886719 256.363281 L 1612.339844 256.363281 C 1613.210938 256.363281 1613.933594 256.730469 1614.488281 257.46875 C 1615.054688 258.1875 1615.316406 259.214844 1615.316406 260.511719 L 1615.316406 278.613281 L 1602.699219 278.613281 C 1601.683594 278.613281 1602.46875 278.632812 1601.214844 278.613281 C 1599.8125 278.613281 1601.722656 278.613281 1600.339844 278.613281 L 1561.886719 278.613281 C 1560.707031 278.613281 1559.847656 278.152344 1559.316406 277.246094 C 1558.796875 276.332031 1558.519531 275.15625 1558.519531 273.695312 L 1558.519531 260.511719 C 1558.699219 259.035156 1559.101562 257.976562 1559.714844 257.328125 C 1560.328125 256.6875 1561.050781 256.363281 1561.886719 256.363281 Z M 1561.886719 256.363281 "/>
<path fill-rule="nonzero" fill="rgb(4.705811%, 4.705811%, 4.705811%)" fill-opacity="1" d="M 916.550781 256.359375 L 990.566406 256.359375 C 991.84375 256.359375 992.90625 256.726562 993.714844 257.464844 C 994.546875 258.1875 994.933594 259.210938 994.933594 260.507812 L 994.933594 273.691406 L 994.90625 443.871094 C 994.90625 445.15625 994.480469 446.210938 993.609375 447.042969 C 992.746094 447.847656 991.738281 448.265625 990.515625 448.265625 L 977.339844 448.265625 C 975.851562 448.265625 974.703125 447.824219 973.90625 446.960938 C 973.058594 446.109375 972.667969 445.070312 972.667969 443.871094 L 972.667969 278.613281 L 916.550781 278.613281 C 914.820312 278.613281 913.566406 278.148438 912.785156 277.242188 C 912.023438 276.328125 911.613281 275.152344 911.613281 273.691406 L 911.613281 260.507812 C 911.878906 259.035156 912.464844 257.972656 913.367188 257.324219 C 914.269531 256.683594 915.332031 256.359375 916.550781 256.359375 Z M 916.550781 256.359375 "/>
<path fill-rule="nonzero" fill="rgb(4.705811%, 4.705811%, 4.705811%)" fill-opacity="1" d="M 1057.585938 256.359375 L 1007.132812 256.359375 C 1006.261719 256.359375 1005.535156 256.726562 1004.984375 257.464844 C 1004.417969 258.1875 1004.15625 259.210938 1004.15625 260.507812 L 1004.15625 278.609375 L 1016.773438 278.609375 C 1017.789062 278.609375 1017.003906 278.628906 1018.257812 278.609375 C 1019.660156 278.613281 1017.746094 278.613281 1019.132812 278.609375 L 1019.335938 278.613281 L 1057.585938 278.613281 C 1058.765625 278.613281 1059.625 278.148438 1060.15625 277.242188 C 1060.675781 276.328125 1060.953125 275.152344 1060.953125 273.691406 L 1060.953125 260.507812 C 1060.773438 259.035156 1060.371094 257.972656 1059.757812 257.324219 C 1059.144531 256.683594 1058.417969 256.359375 1057.585938 256.359375 Z M 1057.585938 256.359375 "/>
<path fill-rule="nonzero" fill="rgb(4.705811%, 4.705811%, 4.705811%)" fill-opacity="1" d="M 741.003906 119.097656 C 745.917969 81.617188 778.046875 52.5625 816.84375 52.5625 C 855.65625 52.5625 887.785156 81.617188 892.703125 119.097656 L 914.585938 119.097656 C 909.566406 69.59375 867.644531 30.832031 816.84375 30.832031 C 766.042969 30.832031 724.136719 69.59375 719.117188 119.097656 Z M 741.003906 119.097656 "/>
<path fill-rule="nonzero" fill="rgb(4.705811%, 4.705811%, 4.705811%)" fill-opacity="1" d="M 893.164062 134.457031 C 890.398438 174.140625 857.234375 205.609375 816.84375 205.609375 C 776.464844 205.609375 743.308594 174.140625 740.539062 134.457031 L 718.765625 134.457031 C 721.5625 186.136719 764.472656 227.332031 816.84375 227.332031 C 869.210938 227.332031 912.144531 186.136719 914.941406 134.457031 Z M 893.164062 134.457031 "/>
<path fill-rule="nonzero" fill="rgb(4.705811%, 4.705811%, 4.705811%)" fill-opacity="1" d="M 1423.332031 428.460938 C 1384.734375 424.597656 1354.488281 391.914062 1354.488281 352.324219 C 1354.488281 312.726562 1384.734375 280.046875 1423.332031 276.183594 L 1423.332031 254.394531 C 1372.734375 258.324219 1332.769531 300.726562 1332.769531 352.324219 C 1332.769531 403.910156 1372.734375 446.308594 1423.332031 450.238281 Z M 1423.332031 428.460938 "/>
<path fill-rule="nonzero" fill="rgb(4.705811%, 4.705811%, 4.705811%)" fill-opacity="1" d="M 1438.691406 254.398438 L 1438.691406 276.1875 C 1477.296875 280.054688 1507.535156 312.730469 1507.535156 352.324219 C 1507.535156 391.910156 1477.296875 424.589844 1438.691406 428.457031 L 1438.691406 450.238281 C 1489.277344 446.296875 1529.25 403.902344 1529.25 352.324219 C 1529.25 300.734375 1489.277344 258.335938 1438.691406 254.398438 Z M 1438.691406 254.398438 "/>
<path fill-rule="nonzero" fill="rgb(4.705811%, 4.705811%, 4.705811%)" fill-opacity="1" d="M 1834.679688 365.109375 C 1835.703125 365.109375 1836.660156 364.71875 1837.523438 363.945312 C 1838.375 363.171875 1838.816406 362.015625 1838.816406 360.449219 L 1838.816406 347.011719 C 1838.816406 345.808594 1838.425781 344.761719 1837.703125 343.898438 C 1836.976562 343.039062 1835.953125 342.609375 1834.679688 342.609375 L 1769.292969 342.609375 L 1769.292969 365.109375 Z M 1834.679688 365.109375 "/>
<g clip-path="url(#clip-0)">
<path fill-rule="nonzero" fill="rgb(4.705811%, 4.705811%, 4.705811%)" fill-opacity="1" d="M 1872.511719 273.953125 L 1872.511719 260.496094 C 1872.511719 257.742188 1871.152344 256.363281 1868.40625 256.363281 L 1741.894531 256.363281 C 1740.449219 256.363281 1739.367188 256.636719 1738.609375 257.199219 C 1737.878906 257.765625 1737.527344 258.773438 1737.527344 260.238281 L 1737.527344 443.867188 C 1737.527344 446.800781 1738.976562 448.269531 1741.894531 448.269531 L 1867.613281 448.269531 C 1869.152344 448.269531 1870.335938 447.921875 1871.097656 447.238281 C 1871.871094 446.550781 1872.246094 445.328125 1872.246094 443.609375 L 1872.246094 430.679688 C 1872.246094 429.386719 1871.871094 428.285156 1871.097656 427.382812 C 1870.335938 426.472656 1869.066406 426.015625 1867.34375 426.015625 L 1760.023438 426.015625 L 1760.023438 389.039062 L 1760.082031 389.039062 L 1760.082031 366.539062 L 1760.023438 366.539062 L 1760.023438 278.613281 L 1868.144531 278.613281 C 1871.0625 278.613281 1872.511719 277.058594 1872.511719 273.953125 Z M 1872.511719 273.953125 "/>
</g>
<path fill-rule="nonzero" fill="rgb(4.705811%, 4.705811%, 4.705811%)" fill-opacity="1" d="M 687.277344 444.320312 C 687.1875 443.972656 687.097656 443.589844 687.019531 443.15625 L 686.75 441.859375 L 686.890625 441.988281 C 680.679688 426.902344 674.238281 411.78125 667.550781 396.601562 C 660.871094 381.425781 654.167969 366.28125 647.453125 351.148438 C 640.722656 336.019531 634.019531 320.886719 627.339844 305.761719 C 620.648438 290.628906 614.214844 275.472656 608 260.296875 C 607.828125 260.042969 607.675781 259.679688 607.542969 259.195312 C 607.421875 258.730469 607.183594 258.273438 606.835938 257.84375 C 606.496094 257.410156 605.976562 257.054688 605.289062 256.757812 C 604.605469 256.453125 603.640625 256.296875 602.445312 256.296875 L 601.542969 256.296875 C 599.378906 256.296875 598 256.703125 597.394531 257.519531 C 596.792969 258.347656 596.316406 259.101562 595.976562 259.785156 L 516.195312 441.988281 C 516.101562 442.164062 516.019531 442.421875 515.925781 442.765625 C 515.839844 443.113281 515.800781 443.886719 515.800781 445.089844 C 515.800781 447.253906 517.394531 448.332031 520.582031 448.332031 L 537.589844 448.332031 L 560.832031 393.949219 L 560.839844 393.953125 L 601.789062 297.933594 L 655.855469 425.566406 L 557.175781 425.566406 L 547.445312 448.332031 L 682.738281 448.332031 C 685.855469 448.332031 687.40625 447.253906 687.40625 445.089844 C 687.40625 444.921875 687.347656 444.660156 687.277344 444.320312 Z M 687.277344 444.320312 "/>
<path fill-rule="nonzero" fill="rgb(4.705811%, 4.705811%, 4.705811%)" fill-opacity="1" d="M 667.199219 33.476562 L 666.246094 185.03125 L 552.410156 31.703125 C 551.363281 30.320312 549.992188 29.621094 548.273438 29.613281 L 530.675781 29.5 C 529.394531 29.492188 528.332031 29.890625 527.519531 30.703125 C 526.6875 31.523438 526.265625 32.582031 526.257812 33.867188 L 525.996094 74.472656 L 525.183594 171.75 L 525.097656 185.46875 L 525.097656 186.625 C 525.160156 188.960938 526.527344 190.132812 529.210938 190.152344 L 529.464844 190.152344 L 586.328125 190.367188 C 587.636719 190.367188 588.652344 189.902344 589.375 188.964844 C 590.125 188.023438 590.5 186.949219 590.5 185.730469 L 590.589844 172.019531 C 590.589844 170.738281 590.214844 169.71875 589.449219 168.980469 C 588.675781 168.246094 587.6875 167.875 586.480469 167.863281 L 547.445312 167.757812 L 548.066406 61.683594 L 666.300781 222.269531 L 683.355469 222.367188 C 686.625 222.394531 688.246094 221.027344 688.285156 218.28125 L 689.453125 34.648438 C 689.453125 33.351562 688.941406 32.335938 687.933594 31.601562 C 686.890625 30.859375 685.773438 30.480469 684.574219 30.480469 L 671.375 30.390625 C 669.148438 30.375 667.75 31.402344 667.199219 33.476562 Z M 667.199219 33.476562 "/>
<path fill-rule="nonzero" fill="rgb(4.705811%, 4.705811%, 4.705811%)" fill-opacity="1" d="M 627.316406 220.488281 C 628.039062 219.546875 628.410156 218.476562 628.429688 217.261719 L 628.519531 203.554688 C 628.519531 202.261719 628.144531 201.246094 627.371094 200.515625 C 626.609375 199.761719 625.605469 199.398438 624.417969 199.390625 L 536.355469 199.390625 C 535.054688 199.378906 534.03125 199.839844 533.296875 200.78125 C 532.554688 201.730469 532.183594 202.800781 532.183594 204.007812 L 532.097656 217.726562 C 532.089844 219.007812 532.46875 220.035156 533.242188 220.777344 C 534.007812 221.503906 535.003906 221.882812 536.203125 221.898438 L 624.257812 221.898438 C 625.566406 221.898438 626.570312 221.433594 627.316406 220.488281 Z M 627.316406 220.488281 "/>
<path fill-rule="nonzero" fill="rgb(4.705811%, 4.705811%, 4.705811%)" fill-opacity="1" d="M 119.515625 369.851562 L 114.136719 375.078125 C 83.929688 343.976562 65.3125 301.519531 65.3125 254.726562 L 80.3125 254.726562 C 80.3125 297.460938 97.296875 336.210938 124.898438 364.625 Z M 72.8125 254.726562 L 65.3125 254.726562 C 65.3125 244.484375 66.207031 234.441406 67.917969 224.675781 L 75.304688 225.972656 L 82.695312 227.269531 C 81.128906 236.183594 80.3125 245.355469 80.3125 254.726562 Z M 72.8125 254.726562 "/>
<path fill-rule="nonzero" fill="rgb(4.705811%, 4.705811%, 4.705811%)" fill-opacity="1" d="M 317.980469 399.375 L 321.613281 405.9375 C 296.839844 419.65625 268.34375 427.460938 238.042969 427.460938 L 238.042969 412.460938 C 265.738281 412.460938 291.742188 405.332031 314.347656 392.8125 Z M 238.042969 419.960938 L 238.042969 427.460938 C 208.441406 427.460938 180.554688 420.007812 156.183594 406.867188 L 159.746094 400.265625 L 163.304688 393.664062 C 185.539062 405.65625 210.984375 412.460938 238.042969 412.460938 Z M 238.042969 419.960938 "/>
<path fill-rule="nonzero" fill="rgb(4.705811%, 4.705811%, 4.705811%)" fill-opacity="1" d="M 400.53125 224.558594 L 407.90625 223.195312 C 409.796875 233.425781 410.78125 243.964844 410.78125 254.726562 L 395.78125 254.726562 C 395.78125 244.882812 394.878906 235.253906 393.15625 225.917969 Z M 403.28125 254.726562 L 410.78125 254.726562 C 410.78125 300.273438 393.144531 341.714844 364.339844 372.570312 L 358.859375 367.453125 L 353.375 362.335938 C 379.6875 334.148438 395.78125 296.324219 395.78125 254.726562 Z M 403.28125 254.726562 "/>
<path fill-rule="nonzero" fill="rgb(4.705811%, 4.705811%, 4.705811%)" fill-opacity="1" d="M 263.71875 91.480469 L 264.875 84.070312 C 320.761719 92.789062 367.746094 128.277344 392.335938 176.988281 L 378.945312 183.746094 C 356.480469 139.242188 313.554688 106.84375 262.5625 98.890625 Z M 263.71875 91.480469 "/>
<path fill-rule="nonzero" fill="rgb(4.705811%, 4.705811%, 4.705811%)" fill-opacity="1" d="M 89.953125 181.359375 L 83.238281 178.027344 C 107.542969 129.058594 154.40625 93.25 210.273438 84.21875 L 211.46875 91.621094 L 212.667969 99.027344 C 161.695312 107.265625 118.878906 139.953125 96.671875 184.695312 Z M 89.953125 181.359375 "/>
<g clip-path="url(#clip-1)">
<path fill-rule="evenodd" fill="rgb(4.705811%, 4.705811%, 4.705811%)" fill-opacity="1" d="M 475.84375 175.257812 L 296.851562 175.257812 L 239.824219 0 L 175.320312 175.257812 L 0 175.257812 L 143.097656 282.453125 L 85.882812 454.660156 L 239.824219 354.441406 L 393.515625 454.660156 L 332.753906 282.453125 Z M 475.84375 175.257812 "/>
</g>
</svg>
