<svg width="66" height="9" viewBox="0 0 66 9" fill="none" xmlns="http://www.w3.org/2000/svg">
<path d="M1.56276e-05 0.0720501H1.46402L4.21202 5.88005L6.92402 0.0720501H8.35202L4.24802 8.50805H4.12802L1.56276e-05 0.0720501ZM9.34755 0.0720501H14.5915V1.26005H10.6315V3.13205H13.0315V4.32005H10.6315V7.16405H14.6515V8.35205H9.34755V0.0720501ZM19.5566 1.26005H15.6446V0.0720501H21.6686V0.18005L17.7206 7.16405H21.8006V8.35205H15.6086V8.24405L19.5566 1.26005ZM23.2577 0.0720501H24.5417V8.35205H23.2577V0.0720501ZM28.9349 6.42005C28.5429 5.78005 28.3469 5.02805 28.3469 4.16405C28.3469 3.33205 28.5429 2.60405 28.9349 1.98005C29.3349 1.35605 29.8949 0.872051 30.6149 0.528051C31.3429 0.17605 32.1949 5.03063e-05 33.1709 5.03063e-05C33.2989 5.03063e-05 33.4389 0.00805044 33.5909 0.0240507C33.7429 0.0400505 33.8669 0.0600505 33.9629 0.0840507V1.29605C33.8749 1.28005 33.7549 1.26805 33.6029 1.26005C33.4589 1.24405 33.3149 1.23605 33.1709 1.23605C32.4749 1.23605 31.8629 1.35605 31.3349 1.59605C30.8069 1.82805 30.3949 2.16005 30.0989 2.59205C29.8109 3.02405 29.6669 3.54005 29.6669 4.14005C29.6669 4.74805 29.8109 5.28405 30.0989 5.74805C30.3949 6.20405 30.7989 6.56005 31.3109 6.81605C31.8309 7.06405 32.4309 7.18805 33.1109 7.18805C33.2949 7.18805 33.4709 7.18405 33.6389 7.17605C33.8149 7.16005 33.9469 7.14405 34.0349 7.12805V8.34005C33.9229 8.36405 33.7829 8.38405 33.6149 8.40005C33.4469 8.41605 33.2629 8.42405 33.0629 8.42405C32.1269 8.42405 31.3029 8.24805 30.5909 7.89605C29.8869 7.54405 29.3349 7.05205 28.9349 6.42005ZM35.41 0.0720501H40.654V1.26005H36.694V3.13205H39.094V4.32005H36.694V7.16405H40.714V8.35205H35.41V0.0720501ZM48.3829 6.09605C48.3829 6.81605 48.1269 7.38405 47.6149 7.80005C47.1029 8.21605 46.4069 8.42405 45.5269 8.42405C45.3029 8.42405 45.0589 8.40805 44.7949 8.37605C44.5389 8.34405 44.3309 8.30805 44.1709 8.26805V7.08005C44.3469 7.12005 44.5549 7.15605 44.7949 7.18805C45.0429 7.22005 45.2669 7.23605 45.4669 7.23605C45.9469 7.23605 46.3229 7.14005 46.5949 6.94805C46.8669 6.74805 47.0029 6.46805 47.0029 6.10805C47.0029 5.83605 46.9189 5.58805 46.7509 5.36405C46.5909 5.14005 46.3109 4.89605 45.9109 4.63205L45.3109 4.23605C44.8709 3.93205 44.5469 3.61605 44.3389 3.28805C44.1309 2.96005 44.0269 2.58805 44.0269 2.17205C44.0269 1.50005 44.2829 0.97205 44.7949 0.588051C45.3069 0.19605 45.9989 5.03063e-05 46.8709 5.03063e-05C47.0309 5.03063e-05 47.1989 0.0120504 47.3749 0.0360506C47.5589 0.0520504 47.6949 0.0680504 47.7829 0.0840507V1.27205C47.6709 1.24805 47.5309 1.22805 47.3629 1.21205C47.1949 1.19605 47.0229 1.18805 46.8469 1.18805C46.3989 1.18805 46.0469 1.27605 45.7909 1.45205C45.5349 1.62805 45.4069 1.86005 45.4069 2.14805C45.4069 2.37205 45.4709 2.56805 45.5989 2.73605C45.7269 2.89605 45.9549 3.08805 46.2829 3.31205L46.8709 3.70805C47.8789 4.38805 48.3829 5.18405 48.3829 6.09605ZM49.7655 0.0720501H52.4895C53.4575 0.0720501 54.2055 0.28405 54.7335 0.70805C55.2695 1.12405 55.5375 1.71205 55.5375 2.47205C55.5375 2.98405 55.4255 3.43205 55.2015 3.81605C54.9775 4.20005 54.6175 4.53605 54.1215 4.82405C53.6335 5.11205 52.9855 5.37205 52.1775 5.60405L51.0495 5.92805V8.35205H49.7655V0.0720501ZM51.9855 4.39205C52.7695 4.17605 53.3375 3.92005 53.6895 3.62405C54.0415 3.32805 54.2175 2.96005 54.2175 2.52005C54.2175 2.12005 54.0655 1.80805 53.7615 1.58405C53.4575 1.36005 53.0335 1.24805 52.4895 1.24805H51.0495V4.65605L51.9855 4.39205ZM56.7716 0.0720501H58.0556V5.40005C58.0556 6.03205 58.1956 6.51205 58.4756 6.84005C58.7636 7.16805 59.1756 7.33205 59.7116 7.33205C60.2476 7.33205 60.6556 7.16805 60.9356 6.84005C61.2156 6.51205 61.3556 6.03205 61.3556 5.40005V0.0720501H62.6396V5.48405C62.6396 6.47605 62.3876 7.23605 61.8836 7.76405C61.3876 8.29205 60.6636 8.55605 59.7116 8.55605C58.7596 8.55605 58.0316 8.29205 57.5276 7.76405C57.0236 7.23605 56.7716 6.47605 56.7716 5.48405V0.0720501ZM64.3905 0.0720501H65.6745V8.35205H64.3905V0.0720501Z" fill="#b0a8c4"/>
</svg>
